<svg xmlns="http://www.w3.org/2000/svg" width="720" height="680" viewBox="0 0 720 680"><title>Tô phở nóng, đũa và đĩa rau thơm trên bàn gỗ</title><rect width="720" height="680" fill="#3a2a20"/><rect y="420" width="720" height="260" fill="#8a5a36"/><path d="M0 420h720" stroke="#6f4528" stroke-width="6"/><path d="M0 470h720M0 540h720M0 610h720" stroke="#7a4d2e" stroke-width="2" opacity=".6"/><circle cx="600" cy="120" r="70" fill="#c9822f" opacity=".25"/><circle cx="600" cy="120" r="34" fill="#efc68d" opacity=".5"/><path d="M300 150c-20-30 20-40 0-80M360 140c-20-30 20-40 0-80M420 150c-20-30 20-40 0-80" fill="none" stroke="#fbf6ee" stroke-width="7" stroke-linecap="round" opacity=".55"/><ellipse cx="360" cy="470" rx="240" ry="40" fill="#2a1d17" opacity=".35"/><path d="M140 300h440c0 120-90 190-220 190S140 420 140 300Z" fill="#fbf6ee"/><path d="M150 330h420" stroke="#4d6a2f" stroke-width="6"/><path d="M160 350h400" stroke="#c9822f" stroke-width="3" stroke-dasharray="14 10"/><ellipse cx="360" cy="300" rx="220" ry="40" fill="#e9c58f"/><ellipse cx="360" cy="296" rx="196" ry="30" fill="#d79a4e"/><path d="M220 296c40-14 80 10 120-4s90 12 130 0" fill="none" stroke="#fbf0d9" stroke-width="8" stroke-linecap="round"/><path d="M240 310c50-10 100 8 150-2" fill="none" stroke="#fbf0d9" stroke-width="7" stroke-linecap="round"/><ellipse cx="300" cy="286" rx="34" ry="12" fill="#8b4a2b"/><ellipse cx="420" cy="290" rx="30" ry="11" fill="#8b4a2b"/><path d="M352 272l18 12-18 8-14-10Z" fill="#6c8f3c"/><path d="M380 278l20 6-14 12-14-8Z" fill="#4d6a2f"/><circle cx="460" cy="282" r="7" fill="#b23a1e"/><path d="M520 250 680 150M540 262 690 172" stroke="#e8d3b0" stroke-width="10" stroke-linecap="round"/><ellipse cx="610" cy="520" rx="78" ry="26" fill="#fbf6ee"/><path d="M560 510c20-30 40 6 52-18 12 24 40-8 52 18" fill="#4d6a2f"/><ellipse cx="120" cy="530" rx="60" ry="20" fill="#fbf6ee"/><circle cx="112" cy="522" r="12" fill="#c9822f"/><circle cx="134" cy="526" r="10" fill="#b23a1e"/></svg>
